<?xml version="1.0" encoding="UTF-8" standalone="no"?>
<!-- Created with Inkscape (http://www.inkscape.org/) -->

<svg
   xmlns:dc="http://purl.org/dc/elements/1.1/"
   xmlns:cc="http://creativecommons.org/ns#"
   xmlns:rdf="http://www.w3.org/1999/02/22-rdf-syntax-ns#"
   xmlns:svg="http://www.w3.org/2000/svg"
   xmlns="http://www.w3.org/2000/svg"
   xmlns:xlink="http://www.w3.org/1999/xlink"
   xmlns:sodipodi="http://sodipodi.sourceforge.net/DTD/sodipodi-0.dtd"
   xmlns:inkscape="http://www.inkscape.org/namespaces/inkscape"
   width="27"
   height="27"
   viewBox="0 0 27 27"
   id="svg30330"
   version="1.1"
   inkscape:version="0.91 r13725"
   sodipodi:docname="app_icon.svg"
   inkscape:export-filename="/Users/martinjlowm/src/rfplusone/android/app/src/main/res/mipmap-hdpi/ic_launcher.png"
   inkscape:export-xdpi="240"
   inkscape:export-ydpi="240">
  <defs
     id="defs30332">
    <linearGradient
       inkscape:collect="always"
       xlink:href="#linearGradient8391"
       id="linearGradient8397-9"
       x1="-1172.9285"
       y1="-299.32822"
       x2="-532.92834"
       y2="340.67184"
       gradientUnits="userSpaceOnUse"
       gradientTransform="matrix(0.03999998,0,0,0.03999998,47.579993,1037.9577)" />
    <linearGradient
       id="linearGradient8391"
       inkscape:collect="always">
      <stop
         id="stop8486"
         offset="0"
         style="stop-color:#ff8003;stop-opacity:1;" />
      <stop
         id="stop8488"
         offset="1"
         style="stop-color:#ff9f41;stop-opacity:1" />
    </linearGradient>
    <linearGradient
       gradientTransform="matrix(0.03999998,0,0,0.03999998,47.579993,1037.9577)"
       inkscape:collect="always"
       xlink:href="#linearGradient5141"
       id="linearGradient8397-0-7"
       x1="-994.01587"
       y1="-140.61787"
       x2="-575.24237"
       y2="278.1546"
       gradientUnits="userSpaceOnUse" />
    <linearGradient
       id="linearGradient5141"
       inkscape:collect="always">
      <stop
         id="stop5143"
         offset="0"
         style="stop-color:#c86400;stop-opacity:1" />
      <stop
         id="stop5145"
         offset="1"
         style="stop-color:#c86300;stop-opacity:0.25" />
    </linearGradient>
  </defs>
  <sodipodi:namedview
     id="base"
     pagecolor="#ffffff"
     bordercolor="#666666"
     borderopacity="1.0"
     inkscape:pageopacity="0.0"
     inkscape:pageshadow="2"
     inkscape:zoom="21.196875"
     inkscape:cx="17.87151"
     inkscape:cy="17.655001"
     inkscape:document-units="px"
     inkscape:current-layer="layer1"
     showgrid="false"
     units="px"
     inkscape:window-width="1436"
     inkscape:window-height="855"
     inkscape:window-x="4"
     inkscape:window-y="1"
     inkscape:window-maximized="1"
     inkscape:snap-bbox="true"
     inkscape:bbox-nodes="true" />
  <metadata
     id="metadata30335">
    <rdf:RDF>
      <cc:Work
         rdf:about="">
        <dc:format>image/svg+xml</dc:format>
        <dc:type
           rdf:resource="http://purl.org/dc/dcmitype/StillImage" />
        <dc:title />
      </cc:Work>
    </rdf:RDF>
  </metadata>
  <g
     inkscape:label="Layer 1"
     inkscape:groupmode="layer"
     id="layer1"
     transform="translate(0,-1025.3621)">
    <g
       id="g4887"
       transform="matrix(1.0384616,0,0,1.0384618,-0.52048434,-39.955221)">
      <rect
         ry="5.8298688"
         y="1025.8621"
         x="0.50000149"
         height="25.999994"
         width="25.999994"
         id="rect6497-5-1-69"
         style="opacity:1;fill:url(#linearGradient8397-9);fill-opacity:1;stroke:none;stroke-width:0.60000002;stroke-linecap:round;stroke-miterlimit:4;stroke-dasharray:none;stroke-dashoffset:10;stroke-opacity:1" />
      <path
         sodipodi:nodetypes="cccccccsscc"
         inkscape:connector-curvature="0"
         id="rect6497-5-1-8-5"
         d="m 11.900003,1029.105 -3.9597663,3.3488 3.9917183,3.9918 -6.4319491,2.2459 4.9130451,4.913 0.268436,2.8993 5.38195,5.3582 4.475221,0 c 3.201478,0 5.961341,-2.3057 5.961341,-6.0485 l 0,-2.1085 z"
         style="opacity:1;fill:url(#linearGradient8397-0-7);fill-opacity:1;stroke:none;stroke-width:0.60000002;stroke-linecap:round;stroke-miterlimit:4;stroke-dasharray:none;stroke-dashoffset:10;stroke-opacity:1" />
      <path
         sodipodi:nodetypes="ccsccccscccsssccccssscc"
         inkscape:connector-curvature="0"
         id="path7977-7-50"
         d="m 11.899999,1029.105 -4.609222,0.7046 c 0,0 -0.2458438,0.037 0.107268,1.3551 0.3531078,1.3178 0.5421837,1.2891 0.5421837,1.2891 l 1.1597674,-0.1623 0,3.6 -3.5999982,0 c 0,0 -0.3999998,0 -0.3999998,1.4 0,1.4 0.3999998,1.4 0.3999998,1.4 l 3.5999982,0 c 0,0 -1.6e-5,3.6 0,3.6 0,3.5346 2.8653789,6.4 6.4000009,6.4 3.534622,0 6.400001,-2.8654 6.400001,-6.4 0,-3.5346 -2.865379,-6.4 -6.400001,-6.4 l -3.599998,0 0,-3.6 z m 0,9.5865 3.599998,0 c 1.988215,0 3.599918,1.6118 3.599918,3.6 0,1.9882 -1.611703,3.5999 -3.599918,3.5999 -1.988215,0 -3.599998,-1.6117 -3.599998,-3.5999 z"
         style="fill:#ffffff;fill-opacity:1;fill-rule:evenodd;stroke:none;stroke-width:22.00000191;stroke-linecap:butt;stroke-linejoin:miter;stroke-miterlimit:4;stroke-dasharray:none;stroke-opacity:1" />
    </g>
  </g>
</svg>
