<?xml version="1.0" encoding="UTF-8" standalone="no"?>
<!-- Created with Inkscape (http://www.inkscape.org/) -->

<svg
   xmlns:dc="http://purl.org/dc/elements/1.1/"
   xmlns:cc="http://creativecommons.org/ns#"
   xmlns:rdf="http://www.w3.org/1999/02/22-rdf-syntax-ns#"
   xmlns:svg="http://www.w3.org/2000/svg"
   xmlns="http://www.w3.org/2000/svg"
   xmlns:xlink="http://www.w3.org/1999/xlink"
   xmlns:sodipodi="http://sodipodi.sourceforge.net/DTD/sodipodi-0.dtd"
   xmlns:inkscape="http://www.inkscape.org/namespaces/inkscape"
   width="27"
   height="27"
   viewBox="0 0 27 27"
   id="svg30330"
   version="1.1"
   inkscape:version="0.91 r13725"
   sodipodi:docname="app_icon.svg"
   inkscape:export-filename="/Users/martinjlowm/src/rfplusone/android/app/src/main/res/mipmap-hdpi/ic_launcher.png"
   inkscape:export-xdpi="240"
   inkscape:export-ydpi="240">
  <defs
     id="defs30332">
    <linearGradient
       inkscape:collect="always"
       xlink:href="#linearGradient8391"
       id="linearGradient8397-9"
       x1="-1172.9285"
       y1="-299.32822"
       x2="-532.92834"
       y2="340.67184"
       gradientUnits="userSpaceOnUse"
       gradientTransform="translate(-2245.1278,-73.366725)" />
    <linearGradient
       id="linearGradient8391"
       inkscape:collect="always">
      <stop
         id="stop8486"
         offset="0"
         style="stop-color:#ff8003;stop-opacity:1;" />
      <stop
         id="stop8488"
         offset="1"
         style="stop-color:#ff9f41;stop-opacity:1" />
    </linearGradient>
    <linearGradient
       gradientTransform="translate(-2245.1278,-73.366685)"
       inkscape:collect="always"
       xlink:href="#linearGradient5141"
       id="linearGradient8397-0-7"
       x1="-994.01587"
       y1="-140.61787"
       x2="-575.24237"
       y2="278.1546"
       gradientUnits="userSpaceOnUse" />
    <linearGradient
       id="linearGradient5141"
       inkscape:collect="always">
      <stop
         id="stop5143"
         offset="0"
         style="stop-color:#c86400;stop-opacity:1" />
      <stop
         id="stop5145"
         offset="1"
         style="stop-color:#c86300;stop-opacity:0.25" />
    </linearGradient>
  </defs>
  <sodipodi:namedview
     id="base"
     pagecolor="#ffffff"
     bordercolor="#666666"
     borderopacity="1.0"
     inkscape:pageopacity="0.0"
     inkscape:pageshadow="2"
     inkscape:zoom="7.9195959"
     inkscape:cx="-4.3093744"
     inkscape:cy="25.405355"
     inkscape:document-units="px"
     inkscape:current-layer="layer1"
     showgrid="false"
     units="px"
     inkscape:window-width="1436"
     inkscape:window-height="855"
     inkscape:window-x="4"
     inkscape:window-y="1"
     inkscape:window-maximized="1" />
  <metadata
     id="metadata30335">
    <rdf:RDF>
      <cc:Work
         rdf:about="">
        <dc:format>image/svg+xml</dc:format>
        <dc:type
           rdf:resource="http://purl.org/dc/dcmitype/StillImage" />
        <dc:title />
      </cc:Work>
    </rdf:RDF>
  </metadata>
  <g
     inkscape:label="Layer 1"
     inkscape:groupmode="layer"
     id="layer1"
     transform="translate(0,-1025.3621)">
    <g
       id="g5136"
       transform="matrix(0.03999998,0,0,0.03999998,137.38506,1040.8924)">
      <rect
         ry="200.00009"
         y="-375.75851"
         x="-3422.1282"
         height="650.00018"
         width="650.00018"
         id="rect6497-5-1-69"
         style="opacity:1;fill:url(#linearGradient8397-9);fill-opacity:1;stroke:none;stroke-width:0.60000002;stroke-linecap:round;stroke-miterlimit:4;stroke-dasharray:none;stroke-dashoffset:10;stroke-opacity:1" />
      <path
         inkscape:connector-curvature="0"
         id="rect6497-5-1-8-5"
         d="m -3137.128,-294.68471 -98.9942,83.72071 99.793,99.79298 -160.7988,56.148445 122.8262,122.82619 6.7109,72.480475 134.5488,133.95704 60.9141,0 c 110.8001,0 200.0001,-89.19997 200.0001,-200.000015 l 0,-3.92578 -365.0001,-365.000045 z"
         style="opacity:1;fill:url(#linearGradient8397-0-7);fill-opacity:1;stroke:none;stroke-width:0.60000002;stroke-linecap:round;stroke-miterlimit:4;stroke-dasharray:none;stroke-dashoffset:10;stroke-opacity:1" />
      <path
         sodipodi:nodetypes="ccsccccscccsssccccssscc"
         inkscape:connector-curvature="0"
         id="path7977-7-50"
         d="m -3137.1281,-294.68486 -115.2306,17.6152 c 0,0 -6.1461,0.9314 2.6817,33.877 8.8277,32.94562 13.5546,32.22852 13.5546,32.22852 l 28.9942,-4.0586 0,90.00003 -90,0 c 0,0 -10,0 -10,35.000005 0,34.99991 10,35.00001 10,35.00001 l 90,0 c 0,0 -4e-4,89.99974 0,90.00004 0,88.365615 71.6345,160.000025 160.0001,160.000025 88.3656,0 160.0001,-71.63441 160.0001,-160.000025 0,-88.36562 -71.6345,-160.000055 -160.0001,-160.000055 l -90,0 0,-90.00003 z m 0,239.662165 90,0 c 49.7054,0 89.998,40.29453 89.998,90.00004 0,49.7054 -40.2926,89.998015 -89.998,89.998015 -49.7054,0 -90,-40.292615 -90,-89.998015 z"
         style="fill:#ffffff;fill-opacity:1;fill-rule:evenodd;stroke:none;stroke-width:22.00000191;stroke-linecap:butt;stroke-linejoin:miter;stroke-miterlimit:4;stroke-dasharray:none;stroke-opacity:1" />
    </g>
  </g>
</svg>
